<?xml version="1.0" encoding="UTF-8"?>
<!DOCTYPE svg PUBLIC "-//W3C//DTD SVG 1.1//EN" "http://www.w3.org/Graphics/SVG/1.1/DTD/svg11.dtd">
<svg version="1.2" width="180.62mm" height="180.62mm" viewBox="0 0 18062 18062" preserveAspectRatio="xMidYMid" fill-rule="evenodd" stroke-width="28.222" stroke-linejoin="round" xmlns="http://www.w3.org/2000/svg" xmlns:ooo="http://xml.openoffice.org/svg/export" xmlns:xlink="http://www.w3.org/1999/xlink" xmlns:presentation="http://sun.com/xmlns/staroffice/presentation" xmlns:smil="http://www.w3.org/2001/SMIL20/" xmlns:anim="urn:oasis:names:tc:opendocument:xmlns:animation:1.0" xml:space="preserve">
 <defs class="ClipPathGroup">
  <clipPath id="presentation_clip_path" clipPathUnits="userSpaceOnUse">
   <rect x="0" y="0" width="18062" height="18062"/>
  </clipPath>
 </defs>
 <defs class="TextShapeIndex">
  <g ooo:slide="id1" ooo:id-list="id3 id4 id5 id6"/>
 </defs>
 <defs class="EmbeddedBulletChars">
  <g id="bullet-char-template(57356)" transform="scale(0.00048828125,-0.00048828125)">
   <path d="M 580,1141 L 1163,571 580,0 -4,571 580,1141 Z"/>
  </g>
  <g id="bullet-char-template(57354)" transform="scale(0.00048828125,-0.00048828125)">
   <path d="M 8,1128 L 1137,1128 1137,0 8,0 8,1128 Z"/>
  </g>
  <g id="bullet-char-template(10146)" transform="scale(0.00048828125,-0.00048828125)">
   <path d="M 174,0 L 602,739 174,1481 1456,739 174,0 Z M 1358,739 L 309,1346 659,739 1358,739 Z"/>
  </g>
  <g id="bullet-char-template(10132)" transform="scale(0.00048828125,-0.00048828125)">
   <path d="M 2015,739 L 1276,0 717,0 1260,543 174,543 174,936 1260,936 717,1481 1274,1481 2015,739 Z"/>
  </g>
  <g id="bullet-char-template(10007)" transform="scale(0.00048828125,-0.00048828125)">
   <path d="M 0,-2 C -7,14 -16,27 -25,37 L 356,567 C 262,823 215,952 215,954 215,979 228,992 255,992 264,992 276,990 289,987 310,991 331,999 354,1012 L 381,999 492,748 772,1049 836,1024 860,1049 C 881,1039 901,1025 922,1006 886,937 835,863 770,784 769,783 710,716 594,584 L 774,223 C 774,196 753,168 711,139 L 727,119 C 717,90 699,76 672,76 641,76 570,178 457,381 L 164,-76 C 142,-110 111,-127 72,-127 30,-127 9,-110 8,-76 1,-67 -2,-52 -2,-32 -2,-23 -1,-13 0,-2 Z"/>
  </g>
  <g id="bullet-char-template(10004)" transform="scale(0.00048828125,-0.00048828125)">
   <path d="M 285,-33 C 182,-33 111,30 74,156 52,228 41,333 41,471 41,549 55,616 82,672 116,743 169,778 240,778 293,778 328,747 346,684 L 369,508 C 377,444 397,411 428,410 L 1163,1116 C 1174,1127 1196,1133 1229,1133 1271,1133 1292,1118 1292,1087 L 1292,965 C 1292,929 1282,901 1262,881 L 442,47 C 390,-6 338,-33 285,-33 Z"/>
  </g>
  <g id="bullet-char-template(9679)" transform="scale(0.00048828125,-0.00048828125)">
   <path d="M 813,0 C 632,0 489,54 383,161 276,268 223,411 223,592 223,773 276,916 383,1023 489,1130 632,1184 813,1184 992,1184 1136,1130 1245,1023 1353,916 1407,772 1407,592 1407,412 1353,268 1245,161 1136,54 992,0 813,0 Z"/>
  </g>
  <g id="bullet-char-template(8226)" transform="scale(0.00048828125,-0.00048828125)">
   <path d="M 346,457 C 273,457 209,483 155,535 101,586 74,649 74,723 74,796 101,859 155,911 209,963 273,989 346,989 419,989 480,963 531,910 582,859 608,796 608,723 608,648 583,586 532,535 482,483 420,457 346,457 Z"/>
  </g>
  <g id="bullet-char-template(8211)" transform="scale(0.00048828125,-0.00048828125)">
   <path d="M -4,459 L 1135,459 1135,606 -4,606 -4,459 Z"/>
  </g>
 </defs>
 <defs class="TextEmbeddedBitmaps"/>
 <g>
  <g id="id2" class="Master_Slide">
   <g id="bg-id2" class="Background"/>
   <g id="bo-id2" class="BackgroundObjects"/>
  </g>
 </g>
 <g class="SlideGroup">
  <g>
   <g id="id1" class="Slide" clip-path="url(#presentation_clip_path)">
    <g class="Page">
     <g class="com.sun.star.drawing.CustomShape">
      <g id="id3">
       <rect class="BoundingBox" stroke="none" fill="none" x="3427" y="2792" width="11306" height="8004"/>
       <path fill="rgb(255,255,255)" stroke="none" d="M 9080,10794 L 3428,10794 3428,2793 14731,2793 14731,10794 9080,10794 Z"/>
       <path fill="none" stroke="rgb(52,101,164)" d="M 9080,10794 L 3428,10794 3428,2793 14731,2793 14731,10794 9080,10794 Z"/>
      </g>
     </g>
     <g class="com.sun.star.drawing.ClosedBezierShape">
      <g id="id4">
       <rect class="BoundingBox" stroke="none" fill="none" x="9560" y="3818" width="3775" height="5198"/>
       <path fill="rgb(216,0,39)" stroke="none" d="M 10581,3819 C 10175,3819 9863,3924 9682,4122 9610,4201 9575,4273 9560,4312 L 9560,8493 C 9831,8372 10155,8311 10528,8311 11490,8311 12618,8712 13334,9015 L 13334,4662 C 12974,4484 12626,4331 12297,4207 11620,3949 11043,3819 10581,3819 Z M 12180,6064 C 11645,5675 11064,5521 10406,5536 9983,5545 9984,4889 10406,4880 11169,4863 11890,5046 12511,5499 12850,5744 12522,6314 12180,6064 Z"/>
      </g>
     </g>
     <g class="com.sun.star.drawing.ClosedBezierShape">
      <g id="id5">
       <rect class="BoundingBox" stroke="none" fill="none" x="4893" y="3818" width="3749" height="5198"/>
       <path fill="rgb(216,0,39)" stroke="none" d="M 7645,3819 C 7184,3819 6607,3949 5930,4207 5602,4332 5253,4484 4893,4662 L 4893,9015 C 5609,8712 6738,8311 7699,8311 8060,8311 8375,8368 8641,8482 L 8641,4253 C 8621,4215 8591,4169 8548,4122 8367,3924 8055,3819 7645,3819 Z M 7748,5536 C 7090,5521 6509,5675 5974,6064 5631,6314 5304,5744 5643,5498 6264,5046 6985,4863 7748,4880 8170,4889 8171,5545 7748,5536 Z"/>
      </g>
     </g>
     <g class="com.sun.star.drawing.ClosedBezierShape">
      <g id="id6">
       <rect class="BoundingBox" stroke="none" fill="none" x="1780" y="0" width="14506" height="18064"/>
       <path fill="rgb(216,0,39)" stroke="none" d="M 16284,7252 C 16284,3253 13031,0 9032,0 5033,0 1780,3253 1780,7252 1780,7844 1859,8450 2014,9054 2018,9095 2027,9136 2041,9176 2087,9303 2495,10431 2777,10908 4220,13651 6199,15999 8658,17887 8701,17936 8754,17978 8814,18009 8873,18040 8937,18057 9003,18061 9018,18063 9032,18063 9047,18063 9127,18063 9207,18044 9282,18007 9337,17981 9385,17942 9425,17897 14927,13683 16000,9267 16039,9094 16202,8476 16284,7856 16284,7252 Z M 14648,4484 L 14648,9588 C 14648,10060 14263,10445 13790,10445 L 4438,10445 C 3965,10445 3580,10060 3580,9588 L 3580,4431 C 3580,3958 3965,3573 4438,3573 L 5056,3573 C 6074,3126 6944,2899 7645,2899 8377,2899 8835,3143 9114,3396 9392,3143 9851,2899 10583,2899 11283,2899 12154,3126 13171,3573 L 13790,3573 C 13924,3573 14049,3607 14162,3662 14448,3801 14647,4092 14647,4431 L 14647,4484 14648,4484 Z"/>
      </g>
     </g>
    </g>
   </g>
  </g>
 </g>
</svg>